<svg xmlns="http://www.w3.org/2000/svg" viewBox="0 0 70.39 48.67"><defs><style>.cls-1{fill:#4758a9;}.cls-2,.cls-4{fill:#ed5565;}.cls-2{stroke:#fff;}.cls-3{fill:#fff;}</style></defs><title>Element 1</title><g id="Ebene_2" data-name="Ebene 2"><g id="Ebene_1-2" data-name="Ebene 1"><path class="cls-1" d="M65,.82H41.21v18h29V6A5.18,5.18,0,0,0,65,.82Z"/><path class="cls-1" d="M29.26.82H5.45A5.18,5.18,0,0,0,.26,6V18.82h29Z"/><path class="cls-1" d="M29.26,30.69H.26V42.57a5.18,5.18,0,0,0,5.19,5.18H29.26Z"/><path class="cls-1" d="M70.21,30.69h-29V47.75H65a5.18,5.18,0,0,0,5.18-5.18Z"/><rect class="cls-2" x="32.97" y="-15.29" width="4.42" height="79.45" transform="translate(-4.5 40.57) rotate(-56.91)"/><rect class="cls-2" x="-4.46" y="22.11" width="79.45" height="4.42" transform="translate(-7.56 23.31) rotate(-33.24)"/><rect class="cls-3" x="0.21" y="18.96" width="70" height="1.88"/><rect class="cls-3" x="0.26" y="28.82" width="70" height="1.88"/><rect class="cls-3" x="29.21" y="0.82" width="2" height="47"/><rect class="cls-3" x="39.21" y="0.82" width="2" height="47"/><polygon class="cls-4" points="0.21 20.82 31.21 20.83 31.21 0.82 39.2 0.82 39.21 20.83 70.21 20.82 70.21 28.81 39.2 28.81 39.2 47.82 31.21 47.82 31.23 28.81 0.21 28.82 0.21 20.82"/></g></g></svg>