<svg xmlns="http://www.w3.org/2000/svg" viewBox="0 0 70.05 47"><defs><style>.cls-1{fill:#434a54;}.cls-2{fill:#f6bb42;}.cls-3{fill:#ed5565;}</style></defs><title>Element 2</title><g id="Ebene_2" data-name="Ebene 2"><g id="Ebene_1-2" data-name="Ebene 1"><path class="cls-1" d="M5.24,0H64.86A5.19,5.19,0,0,1,70,5.19V16a0,0,0,0,1,0,0H0a0,0,0,0,1,0,0V5.19A5.19,5.19,0,0,1,5.24,0Z"/><path class="cls-2" d="M5.24,32.25H64.86A5.19,5.19,0,0,1,70,37.44V47a0,0,0,0,1,0,0H0a0,0,0,0,1,0,0V37.44A5.19,5.19,0,0,1,5.24,32.25Z" transform="translate(70.1 79.25) rotate(180)"/><rect class="cls-3" y="16" width="70.05" height="16.25"/></g></g></svg>